<mxfile host="Electron" modified="2023-11-22T23:08:02.208Z" agent="Mozilla/5.0 (Macintosh; Intel Mac OS X 10_15_7) AppleWebKit/537.36 (KHTML, like Gecko) draw.io/21.6.8 Chrome/114.0.5735.289 Electron/25.5.0 Safari/537.36" etag="q8aqlKeUHFmuz0X6d-H7" version="21.6.8" type="device" pages="3">
  <diagram name="webstore_diagram" id="uVSYqtYSZJBn2wNDxMIA">
    <mxGraphModel dx="2263" dy="1344" grid="0" gridSize="10" guides="1" tooltips="1" connect="1" arrows="1" fold="1" page="0" pageScale="1" pageWidth="850" pageHeight="1100" math="0" shadow="0">
      <root>
        <mxCell id="0" />
        <mxCell id="1" parent="0" />
        <mxCell id="uNvxnOoFOZrMYx53Gy8S-36" style="rounded=0;orthogonalLoop=1;jettySize=auto;html=1;exitX=0.5;exitY=0;exitDx=0;exitDy=0;exitPerimeter=0;entryX=0;entryY=0.5;entryDx=0;entryDy=0;" parent="1" source="uNvxnOoFOZrMYx53Gy8S-1" target="uNvxnOoFOZrMYx53Gy8S-10" edge="1">
          <mxGeometry relative="1" as="geometry" />
        </mxCell>
        <mxCell id="uNvxnOoFOZrMYx53Gy8S-37" style="rounded=0;orthogonalLoop=1;jettySize=auto;html=1;exitX=0.75;exitY=0.1;exitDx=0;exitDy=0;exitPerimeter=0;entryX=0;entryY=0.5;entryDx=0;entryDy=0;" parent="1" source="uNvxnOoFOZrMYx53Gy8S-1" target="uNvxnOoFOZrMYx53Gy8S-11" edge="1">
          <mxGeometry relative="1" as="geometry" />
        </mxCell>
        <mxCell id="uNvxnOoFOZrMYx53Gy8S-38" style="rounded=0;orthogonalLoop=1;jettySize=auto;html=1;exitX=0.75;exitY=0.1;exitDx=0;exitDy=0;exitPerimeter=0;entryX=0;entryY=0.5;entryDx=0;entryDy=0;" parent="1" source="uNvxnOoFOZrMYx53Gy8S-1" target="uNvxnOoFOZrMYx53Gy8S-14" edge="1">
          <mxGeometry relative="1" as="geometry" />
        </mxCell>
        <mxCell id="uNvxnOoFOZrMYx53Gy8S-42" style="rounded=0;orthogonalLoop=1;jettySize=auto;html=1;exitX=1;exitY=0.3333333333333333;exitDx=0;exitDy=0;exitPerimeter=0;entryX=0;entryY=0.5;entryDx=0;entryDy=0;" parent="1" source="uNvxnOoFOZrMYx53Gy8S-1" target="uNvxnOoFOZrMYx53Gy8S-15" edge="1">
          <mxGeometry relative="1" as="geometry" />
        </mxCell>
        <mxCell id="uNvxnOoFOZrMYx53Gy8S-44" style="rounded=0;orthogonalLoop=1;jettySize=auto;html=1;exitX=1;exitY=1;exitDx=0;exitDy=0;exitPerimeter=0;entryX=0;entryY=0.5;entryDx=0;entryDy=0;" parent="1" source="uNvxnOoFOZrMYx53Gy8S-1" target="uNvxnOoFOZrMYx53Gy8S-31" edge="1">
          <mxGeometry relative="1" as="geometry" />
        </mxCell>
        <mxCell id="uNvxnOoFOZrMYx53Gy8S-45" style="rounded=0;orthogonalLoop=1;jettySize=auto;html=1;exitX=1;exitY=1;exitDx=0;exitDy=0;exitPerimeter=0;entryX=0;entryY=0.5;entryDx=0;entryDy=0;" parent="1" source="uNvxnOoFOZrMYx53Gy8S-1" target="uNvxnOoFOZrMYx53Gy8S-32" edge="1">
          <mxGeometry relative="1" as="geometry" />
        </mxCell>
        <mxCell id="uNvxnOoFOZrMYx53Gy8S-46" style="rounded=0;orthogonalLoop=1;jettySize=auto;html=1;exitX=1;exitY=1;exitDx=0;exitDy=0;exitPerimeter=0;entryX=0;entryY=0.5;entryDx=0;entryDy=0;" parent="1" source="uNvxnOoFOZrMYx53Gy8S-1" target="uNvxnOoFOZrMYx53Gy8S-33" edge="1">
          <mxGeometry relative="1" as="geometry" />
        </mxCell>
        <mxCell id="uNvxnOoFOZrMYx53Gy8S-1" value="Employee" style="shape=umlActor;verticalLabelPosition=bottom;verticalAlign=top;html=1;outlineConnect=0;" parent="1" vertex="1">
          <mxGeometry x="-30" y="440" width="30" height="60" as="geometry" />
        </mxCell>
        <mxCell id="uNvxnOoFOZrMYx53Gy8S-39" style="rounded=0;orthogonalLoop=1;jettySize=auto;html=1;exitX=0.75;exitY=0.1;exitDx=0;exitDy=0;exitPerimeter=0;entryX=0;entryY=0.5;entryDx=0;entryDy=0;" parent="1" source="uNvxnOoFOZrMYx53Gy8S-2" target="uNvxnOoFOZrMYx53Gy8S-15" edge="1">
          <mxGeometry relative="1" as="geometry" />
        </mxCell>
        <mxCell id="uNvxnOoFOZrMYx53Gy8S-40" style="rounded=0;orthogonalLoop=1;jettySize=auto;html=1;exitX=1;exitY=0.3333333333333333;exitDx=0;exitDy=0;exitPerimeter=0;entryX=0;entryY=0.5;entryDx=0;entryDy=0;" parent="1" source="uNvxnOoFOZrMYx53Gy8S-2" target="uNvxnOoFOZrMYx53Gy8S-34" edge="1">
          <mxGeometry relative="1" as="geometry" />
        </mxCell>
        <mxCell id="uNvxnOoFOZrMYx53Gy8S-41" style="rounded=0;orthogonalLoop=1;jettySize=auto;html=1;exitX=0.5;exitY=0;exitDx=0;exitDy=0;exitPerimeter=0;entryX=0;entryY=1;entryDx=0;entryDy=0;" parent="1" source="uNvxnOoFOZrMYx53Gy8S-2" target="uNvxnOoFOZrMYx53Gy8S-14" edge="1">
          <mxGeometry relative="1" as="geometry" />
        </mxCell>
        <mxCell id="uNvxnOoFOZrMYx53Gy8S-48" style="rounded=0;orthogonalLoop=1;jettySize=auto;html=1;exitX=1;exitY=1;exitDx=0;exitDy=0;exitPerimeter=0;" parent="1" source="uNvxnOoFOZrMYx53Gy8S-2" target="uNvxnOoFOZrMYx53Gy8S-47" edge="1">
          <mxGeometry relative="1" as="geometry" />
        </mxCell>
        <mxCell id="uNvxnOoFOZrMYx53Gy8S-49" style="rounded=0;orthogonalLoop=1;jettySize=auto;html=1;exitX=1;exitY=1;exitDx=0;exitDy=0;exitPerimeter=0;entryX=0;entryY=0.5;entryDx=0;entryDy=0;" parent="1" source="uNvxnOoFOZrMYx53Gy8S-2" target="uNvxnOoFOZrMYx53Gy8S-32" edge="1">
          <mxGeometry relative="1" as="geometry" />
        </mxCell>
        <mxCell id="uNvxnOoFOZrMYx53Gy8S-2" value="User" style="shape=umlActor;verticalLabelPosition=bottom;verticalAlign=top;html=1;outlineConnect=0;" parent="1" vertex="1">
          <mxGeometry x="170" y="430" width="30" height="60" as="geometry" />
        </mxCell>
        <mxCell id="uNvxnOoFOZrMYx53Gy8S-3" value="Product" style="swimlane;childLayout=stackLayout;horizontal=1;startSize=50;horizontalStack=0;rounded=1;fontSize=14;fontStyle=0;strokeWidth=2;resizeParent=0;resizeLast=1;shadow=0;dashed=0;align=center;arcSize=4;whiteSpace=wrap;html=1;" parent="1" vertex="1">
          <mxGeometry x="790" y="-20" width="160" height="150" as="geometry" />
        </mxCell>
        <mxCell id="uNvxnOoFOZrMYx53Gy8S-4" value="+ productNumber&lt;br&gt;+ name&lt;br&gt;+ price&lt;br&gt;+ description&lt;br&gt;+ numberInStock" style="align=left;strokeColor=none;fillColor=none;spacingLeft=4;fontSize=12;verticalAlign=top;resizable=0;rotatable=0;part=1;html=1;" parent="uNvxnOoFOZrMYx53Gy8S-3" vertex="1">
          <mxGeometry y="50" width="160" height="100" as="geometry" />
        </mxCell>
        <mxCell id="uNvxnOoFOZrMYx53Gy8S-6" value="Review" style="swimlane;childLayout=stackLayout;horizontal=1;startSize=50;horizontalStack=0;rounded=1;fontSize=14;fontStyle=0;strokeWidth=2;resizeParent=0;resizeLast=1;shadow=0;dashed=0;align=center;arcSize=4;whiteSpace=wrap;html=1;" parent="1" vertex="1">
          <mxGeometry x="790" y="210" width="160" height="150" as="geometry" />
        </mxCell>
        <mxCell id="uNvxnOoFOZrMYx53Gy8S-7" value="+ id&lt;br&gt;+ username&lt;br&gt;+ message&lt;br&gt;+ rate (1,2,3,4,5)" style="align=left;strokeColor=none;fillColor=none;spacingLeft=4;fontSize=12;verticalAlign=top;resizable=0;rotatable=0;part=1;html=1;" parent="uNvxnOoFOZrMYx53Gy8S-6" vertex="1">
          <mxGeometry y="50" width="160" height="100" as="geometry" />
        </mxCell>
        <mxCell id="uNvxnOoFOZrMYx53Gy8S-8" style="edgeStyle=orthogonalEdgeStyle;rounded=0;orthogonalLoop=1;jettySize=auto;html=1;exitX=0.5;exitY=1;exitDx=0;exitDy=0;entryX=0.5;entryY=0;entryDx=0;entryDy=0;" parent="1" source="uNvxnOoFOZrMYx53Gy8S-4" target="uNvxnOoFOZrMYx53Gy8S-6" edge="1">
          <mxGeometry relative="1" as="geometry" />
        </mxCell>
        <mxCell id="uNvxnOoFOZrMYx53Gy8S-9" value="*" style="text;html=1;strokeColor=none;fillColor=none;align=center;verticalAlign=middle;whiteSpace=wrap;rounded=0;" parent="1" vertex="1">
          <mxGeometry x="830" y="180" width="60" height="30" as="geometry" />
        </mxCell>
        <mxCell id="uNvxnOoFOZrMYx53Gy8S-10" value="Listing Products" style="ellipse;whiteSpace=wrap;html=1;" parent="1" vertex="1">
          <mxGeometry x="270" y="20" width="140" height="60" as="geometry" />
        </mxCell>
        <mxCell id="uNvxnOoFOZrMYx53Gy8S-11" value="Add Product" style="ellipse;whiteSpace=wrap;html=1;" parent="1" vertex="1">
          <mxGeometry x="270" y="90" width="140" height="60" as="geometry" />
        </mxCell>
        <mxCell id="uNvxnOoFOZrMYx53Gy8S-12" value="Remove Product" style="ellipse;whiteSpace=wrap;html=1;" parent="1" vertex="1">
          <mxGeometry x="410" y="20" width="140" height="60" as="geometry" />
        </mxCell>
        <mxCell id="uNvxnOoFOZrMYx53Gy8S-13" value="Update Product" style="ellipse;whiteSpace=wrap;html=1;" parent="1" vertex="1">
          <mxGeometry x="410" y="90" width="140" height="60" as="geometry" />
        </mxCell>
        <mxCell id="uNvxnOoFOZrMYx53Gy8S-14" value="View detail Product" style="ellipse;whiteSpace=wrap;html=1;" parent="1" vertex="1">
          <mxGeometry x="270" y="160" width="140" height="60" as="geometry" />
        </mxCell>
        <mxCell id="uNvxnOoFOZrMYx53Gy8S-15" value="Search Product by name" style="ellipse;whiteSpace=wrap;html=1;" parent="1" vertex="1">
          <mxGeometry x="340" y="230" width="140" height="60" as="geometry" />
        </mxCell>
        <mxCell id="uNvxnOoFOZrMYx53Gy8S-26" style="edgeStyle=orthogonalEdgeStyle;rounded=0;orthogonalLoop=1;jettySize=auto;html=1;exitX=1;exitY=0.25;exitDx=0;exitDy=0;entryX=0;entryY=0.25;entryDx=0;entryDy=0;" parent="1" source="uNvxnOoFOZrMYx53Gy8S-16" target="uNvxnOoFOZrMYx53Gy8S-19" edge="1">
          <mxGeometry relative="1" as="geometry" />
        </mxCell>
        <mxCell id="uNvxnOoFOZrMYx53Gy8S-16" value="Order" style="swimlane;childLayout=stackLayout;horizontal=1;startSize=50;horizontalStack=0;rounded=1;fontSize=14;fontStyle=0;strokeWidth=2;resizeParent=0;resizeLast=1;shadow=0;dashed=0;align=center;arcSize=4;whiteSpace=wrap;html=1;" parent="1" vertex="1">
          <mxGeometry x="590" y="590" width="270" height="150" as="geometry" />
        </mxCell>
        <mxCell id="uNvxnOoFOZrMYx53Gy8S-17" value="+ orderId&lt;br&gt;+ status (PLACED/SHIPPED/DELIVERIED)&lt;br&gt;+ totalAmount" style="align=left;strokeColor=none;fillColor=none;spacingLeft=4;fontSize=12;verticalAlign=top;resizable=0;rotatable=0;part=1;html=1;" parent="uNvxnOoFOZrMYx53Gy8S-16" vertex="1">
          <mxGeometry y="50" width="270" height="100" as="geometry" />
        </mxCell>
        <mxCell id="uNvxnOoFOZrMYx53Gy8S-18" value="Personal Info" style="swimlane;childLayout=stackLayout;horizontal=1;startSize=50;horizontalStack=0;rounded=1;fontSize=14;fontStyle=0;strokeWidth=2;resizeParent=0;resizeLast=1;shadow=0;dashed=0;align=center;arcSize=4;whiteSpace=wrap;html=1;" parent="1" vertex="1">
          <mxGeometry x="1040" y="400" width="160" height="150" as="geometry" />
        </mxCell>
        <mxCell id="uNvxnOoFOZrMYx53Gy8S-19" value="+ name&lt;br&gt;+ email&lt;br&gt;+ phone&lt;br&gt;+ street&lt;br&gt;+ city&lt;br&gt;+ zip" style="align=left;strokeColor=none;fillColor=none;spacingLeft=4;fontSize=12;verticalAlign=top;resizable=0;rotatable=0;part=1;html=1;" parent="uNvxnOoFOZrMYx53Gy8S-18" vertex="1">
          <mxGeometry y="50" width="160" height="100" as="geometry" />
        </mxCell>
        <mxCell id="uNvxnOoFOZrMYx53Gy8S-20" value="Payment Info" style="swimlane;childLayout=stackLayout;horizontal=1;startSize=50;horizontalStack=0;rounded=1;fontSize=14;fontStyle=0;strokeWidth=2;resizeParent=0;resizeLast=1;shadow=0;dashed=0;align=center;arcSize=4;whiteSpace=wrap;html=1;" parent="1" vertex="1">
          <mxGeometry x="1040" y="590" width="200" height="150" as="geometry" />
        </mxCell>
        <mxCell id="uNvxnOoFOZrMYx53Gy8S-21" value="+ creditCardType (Visa/Mastercard)&lt;br&gt;+ number&lt;br&gt;+ validDate&lt;br&gt;+ validationCode" style="align=left;strokeColor=none;fillColor=none;spacingLeft=4;fontSize=12;verticalAlign=top;resizable=0;rotatable=0;part=1;html=1;" parent="uNvxnOoFOZrMYx53Gy8S-20" vertex="1">
          <mxGeometry y="50" width="200" height="100" as="geometry" />
        </mxCell>
        <mxCell id="uNvxnOoFOZrMYx53Gy8S-24" value="Item" style="swimlane;childLayout=stackLayout;horizontal=1;startSize=50;horizontalStack=0;rounded=1;fontSize=14;fontStyle=0;strokeWidth=2;resizeParent=0;resizeLast=1;shadow=0;dashed=0;align=center;arcSize=4;whiteSpace=wrap;html=1;" parent="1" vertex="1">
          <mxGeometry x="1040" y="790" width="240" height="150" as="geometry" />
        </mxCell>
        <mxCell id="uNvxnOoFOZrMYx53Gy8S-25" value="+ itemId&lt;br&gt;+ productNumber&lt;br&gt;+ quantity&lt;br&gt;+ price (price per 1 unit of product)" style="align=left;strokeColor=none;fillColor=none;spacingLeft=4;fontSize=12;verticalAlign=top;resizable=0;rotatable=0;part=1;html=1;" parent="uNvxnOoFOZrMYx53Gy8S-24" vertex="1">
          <mxGeometry y="50" width="240" height="100" as="geometry" />
        </mxCell>
        <mxCell id="uNvxnOoFOZrMYx53Gy8S-27" style="edgeStyle=orthogonalEdgeStyle;rounded=0;orthogonalLoop=1;jettySize=auto;html=1;exitX=1;exitY=0.25;exitDx=0;exitDy=0;entryX=0;entryY=0.25;entryDx=0;entryDy=0;" parent="1" source="uNvxnOoFOZrMYx53Gy8S-17" target="uNvxnOoFOZrMYx53Gy8S-21" edge="1">
          <mxGeometry relative="1" as="geometry" />
        </mxCell>
        <mxCell id="uNvxnOoFOZrMYx53Gy8S-30" style="edgeStyle=orthogonalEdgeStyle;rounded=0;orthogonalLoop=1;jettySize=auto;html=1;exitX=1.004;exitY=0.6;exitDx=0;exitDy=0;entryX=0;entryY=0.25;entryDx=0;entryDy=0;exitPerimeter=0;" parent="1" source="uNvxnOoFOZrMYx53Gy8S-17" target="uNvxnOoFOZrMYx53Gy8S-25" edge="1">
          <mxGeometry relative="1" as="geometry">
            <mxPoint x="1200" y="855" as="sourcePoint" />
          </mxGeometry>
        </mxCell>
        <mxCell id="uNvxnOoFOZrMYx53Gy8S-31" value="&lt;meta charset=&quot;utf-8&quot;&gt;&lt;span style=&quot;color: rgb(0, 0, 0); font-family: Helvetica; font-size: 12px; font-style: normal; font-variant-ligatures: normal; font-variant-caps: normal; font-weight: 400; letter-spacing: normal; orphans: 2; text-align: left; text-indent: 0px; text-transform: none; widows: 2; word-spacing: 0px; -webkit-text-stroke-width: 0px; background-color: rgb(251, 251, 251); text-decoration-thickness: initial; text-decoration-style: initial; text-decoration-color: initial; float: none; display: inline !important;&quot;&gt;{productNumber, quantity, price}&lt;/span&gt;" style="ellipse;whiteSpace=wrap;html=1;" parent="1" vertex="1">
          <mxGeometry x="320" y="550" width="180" height="60" as="geometry" />
        </mxCell>
        <mxCell id="uNvxnOoFOZrMYx53Gy8S-32" value="View Order details" style="ellipse;whiteSpace=wrap;html=1;" parent="1" vertex="1">
          <mxGeometry x="320" y="630" width="180" height="60" as="geometry" />
        </mxCell>
        <mxCell id="uNvxnOoFOZrMYx53Gy8S-33" value="Update Status" style="ellipse;whiteSpace=wrap;html=1;" parent="1" vertex="1">
          <mxGeometry x="320" y="720" width="180" height="60" as="geometry" />
        </mxCell>
        <mxCell id="uNvxnOoFOZrMYx53Gy8S-34" value="Write a review" style="ellipse;whiteSpace=wrap;html=1;fontStyle=1" parent="1" vertex="1">
          <mxGeometry x="340" y="320" width="140" height="60" as="geometry" />
        </mxCell>
        <mxCell id="uNvxnOoFOZrMYx53Gy8S-35" value="shoppingCart = {&lt;br&gt;&amp;nbsp; itemLines: [&lt;br&gt;&amp;nbsp; &amp;nbsp; &amp;nbsp; {productNumber, productName, quantity, price},&lt;br&gt;&amp;nbsp; &amp;nbsp; &amp;nbsp; {productNumber, productName, quantity, price}&lt;br&gt;&amp;nbsp; ],&amp;nbsp;&lt;br&gt;&amp;nbsp; totalAmount: 100.5,&lt;br&gt;&amp;nbsp;&amp;nbsp;&lt;br&gt;&amp;nbsp; getNumberOfItems(),&lt;br&gt;&amp;nbsp; addProduct(),&lt;br&gt;&amp;nbsp; removeProduct(),&lt;br&gt;&amp;nbsp; changeQuantity(),&lt;br&gt;}" style="shape=document;whiteSpace=wrap;html=1;boundedLbl=1;align=left;" parent="1" vertex="1">
          <mxGeometry x="1260" y="60" width="350" height="360" as="geometry" />
        </mxCell>
        <mxCell id="uNvxnOoFOZrMYx53Gy8S-47" value="&lt;span style=&quot;color: rgb(0, 0, 0); font-family: Helvetica; font-size: 12px; font-style: normal; font-variant-ligatures: normal; font-variant-caps: normal; font-weight: 400; letter-spacing: normal; orphans: 2; text-align: left; text-indent: 0px; text-transform: none; widows: 2; word-spacing: 0px; -webkit-text-stroke-width: 0px; background-color: rgb(251, 251, 251); text-decoration-thickness: initial; text-decoration-style: initial; text-decoration-color: initial; float: none; display: inline !important;&quot;&gt;create Order&lt;/span&gt;" style="ellipse;whiteSpace=wrap;html=1;" parent="1" vertex="1">
          <mxGeometry x="310" y="470" width="180" height="60" as="geometry" />
        </mxCell>
      </root>
    </mxGraphModel>
  </diagram>
  <diagram id="shocW6eiudPvgOyNUCUq" name="backend">
    <mxGraphModel dx="1863" dy="1248" grid="0" gridSize="10" guides="1" tooltips="1" connect="1" arrows="1" fold="1" page="0" pageScale="1" pageWidth="850" pageHeight="1100" math="0" shadow="0">
      <root>
        <mxCell id="0" />
        <mxCell id="1" parent="0" />
        <mxCell id="raRqPZmpx30NP72x3H2E-6" style="edgeStyle=orthogonalEdgeStyle;rounded=0;orthogonalLoop=1;jettySize=auto;html=1;exitX=1;exitY=0.5;exitDx=0;exitDy=0;" parent="1" source="raRqPZmpx30NP72x3H2E-1" target="raRqPZmpx30NP72x3H2E-2" edge="1">
          <mxGeometry relative="1" as="geometry" />
        </mxCell>
        <mxCell id="ezkh08ThaCVcUG3YZsz_-12" style="rounded=0;orthogonalLoop=1;jettySize=auto;html=1;exitX=1;exitY=1;exitDx=0;exitDy=0;entryX=0;entryY=0.5;entryDx=0;entryDy=0;" parent="1" source="raRqPZmpx30NP72x3H2E-1" target="raRqPZmpx30NP72x3H2E-3" edge="1">
          <mxGeometry relative="1" as="geometry" />
        </mxCell>
        <mxCell id="raRqPZmpx30NP72x3H2E-1" value="http://localhost:3000/products" style="image;aspect=fixed;perimeter=ellipsePerimeter;html=1;align=center;shadow=0;dashed=0;spacingTop=3;image=img/lib/active_directory/internet_cloud.svg;labelPosition=center;verticalLabelPosition=top;verticalAlign=bottom;" parent="1" vertex="1">
          <mxGeometry x="110" y="75" width="158.73" height="100" as="geometry" />
        </mxCell>
        <mxCell id="raRqPZmpx30NP72x3H2E-2" value="Front-end" style="rounded=1;whiteSpace=wrap;html=1;fillColor=#f5f5f5;gradientColor=#b3b3b3;strokeColor=#666666;labelPosition=center;verticalLabelPosition=top;align=center;verticalAlign=bottom;" parent="1" vertex="1">
          <mxGeometry x="480" y="40" width="640" height="170" as="geometry" />
        </mxCell>
        <mxCell id="raRqPZmpx30NP72x3H2E-8" style="edgeStyle=orthogonalEdgeStyle;rounded=0;orthogonalLoop=1;jettySize=auto;html=1;exitX=0.5;exitY=1;exitDx=0;exitDy=0;" parent="1" source="raRqPZmpx30NP72x3H2E-11" target="raRqPZmpx30NP72x3H2E-7" edge="1">
          <mxGeometry relative="1" as="geometry" />
        </mxCell>
        <mxCell id="raRqPZmpx30NP72x3H2E-3" value="Back-end" style="rounded=1;whiteSpace=wrap;html=1;fillColor=#f5f5f5;gradientColor=#b3b3b3;strokeColor=#666666;labelPosition=center;verticalLabelPosition=top;align=center;verticalAlign=bottom;" parent="1" vertex="1">
          <mxGeometry x="480" y="240" width="640" height="360" as="geometry" />
        </mxCell>
        <mxCell id="raRqPZmpx30NP72x3H2E-4" value="http://localhost:3000/orders" style="text;html=1;strokeColor=none;fillColor=none;align=center;verticalAlign=middle;whiteSpace=wrap;rounded=0;" parent="1" vertex="1">
          <mxGeometry x="265" y="90" width="160" height="30" as="geometry" />
        </mxCell>
        <mxCell id="raRqPZmpx30NP72x3H2E-5" value="http://localhost:3000/shopping" style="text;html=1;strokeColor=none;fillColor=none;align=center;verticalAlign=middle;whiteSpace=wrap;rounded=0;" parent="1" vertex="1">
          <mxGeometry x="240" y="70" width="170" height="30" as="geometry" />
        </mxCell>
        <mxCell id="raRqPZmpx30NP72x3H2E-7" value="MongoDB" style="shape=cylinder3;whiteSpace=wrap;html=1;boundedLbl=1;backgroundOutline=1;size=15;fillColor=#fff2cc;gradientColor=#ffd966;strokeColor=#d6b656;fontStyle=1;fontSize=14;" parent="1" vertex="1">
          <mxGeometry x="955" y="660" width="100" height="120" as="geometry" />
        </mxCell>
        <mxCell id="raRqPZmpx30NP72x3H2E-9" value="REST Controller" style="rounded=1;whiteSpace=wrap;html=1;labelPosition=center;verticalLabelPosition=top;align=center;verticalAlign=bottom;fillColor=#fff2cc;gradientColor=#ffd966;strokeColor=#d6b656;fontStyle=1;fontSize=14;" parent="1" vertex="1">
          <mxGeometry x="510" y="310" width="160" height="240" as="geometry" />
        </mxCell>
        <mxCell id="raRqPZmpx30NP72x3H2E-10" value="Services" style="rounded=1;whiteSpace=wrap;html=1;labelPosition=center;verticalLabelPosition=top;align=center;verticalAlign=bottom;fillColor=#fff2cc;gradientColor=#ffd966;strokeColor=#d6b656;fontStyle=1;fontSize=14;" parent="1" vertex="1">
          <mxGeometry x="720" y="310" width="160" height="240" as="geometry" />
        </mxCell>
        <mxCell id="raRqPZmpx30NP72x3H2E-11" value="Repository" style="rounded=1;whiteSpace=wrap;html=1;labelPosition=center;verticalLabelPosition=top;align=center;verticalAlign=bottom;fillColor=#fff2cc;gradientColor=#ffd966;strokeColor=#d6b656;fontStyle=1;fontSize=14;" parent="1" vertex="1">
          <mxGeometry x="940" y="310" width="130" height="240" as="geometry" />
        </mxCell>
        <mxCell id="raRqPZmpx30NP72x3H2E-13" value="DTOs" style="rounded=1;whiteSpace=wrap;html=1;fillColor=#d5e8d4;gradientColor=#97d077;strokeColor=#82b366;" parent="1" vertex="1">
          <mxGeometry x="750" y="490" width="100" height="30" as="geometry" />
        </mxCell>
        <mxCell id="raRqPZmpx30NP72x3H2E-14" value="Adapter" style="rounded=1;whiteSpace=wrap;html=1;fillColor=#d5e8d4;gradientColor=#97d077;strokeColor=#82b366;" parent="1" vertex="1">
          <mxGeometry x="710" y="450" width="100" height="30" as="geometry" />
        </mxCell>
        <mxCell id="raRqPZmpx30NP72x3H2E-15" value="CustomTypeError" style="rounded=1;whiteSpace=wrap;html=1;fillColor=#d5e8d4;gradientColor=#97d077;strokeColor=#82b366;" parent="1" vertex="1">
          <mxGeometry x="540" y="450" width="100" height="30" as="geometry" />
        </mxCell>
        <mxCell id="raRqPZmpx30NP72x3H2E-16" value="ProductsInfo" style="rounded=1;whiteSpace=wrap;html=1;fillColor=#d5e8d4;gradientColor=#97d077;strokeColor=#82b366;" parent="1" vertex="1">
          <mxGeometry x="540" y="490" width="100" height="30" as="geometry" />
        </mxCell>
        <mxCell id="raRqPZmpx30NP72x3H2E-17" value="Entity" style="rounded=1;whiteSpace=wrap;html=1;fillColor=#d5e8d4;gradientColor=#97d077;strokeColor=#82b366;" parent="1" vertex="1">
          <mxGeometry x="950" y="330" width="100" height="30" as="geometry" />
        </mxCell>
        <mxCell id="raRqPZmpx30NP72x3H2E-18" value="Order" style="rounded=1;whiteSpace=wrap;html=1;fillColor=#d5e8d4;gradientColor=#97d077;strokeColor=#82b366;" parent="1" vertex="1">
          <mxGeometry x="950" y="380" width="100" height="30" as="geometry" />
        </mxCell>
        <mxCell id="raRqPZmpx30NP72x3H2E-19" value="Product" style="rounded=1;whiteSpace=wrap;html=1;fillColor=#d5e8d4;gradientColor=#97d077;strokeColor=#82b366;" parent="1" vertex="1">
          <mxGeometry x="950" y="430" width="100" height="30" as="geometry" />
        </mxCell>
        <mxCell id="raRqPZmpx30NP72x3H2E-20" value="PersonInfo" style="rounded=1;whiteSpace=wrap;html=1;fillColor=#d5e8d4;gradientColor=#97d077;strokeColor=#82b366;" parent="1" vertex="1">
          <mxGeometry x="950" y="480" width="100" height="30" as="geometry" />
        </mxCell>
        <mxCell id="ezkh08ThaCVcUG3YZsz_-1" value="OrderController" style="rounded=1;whiteSpace=wrap;html=1;fillColor=#d5e8d4;gradientColor=#97d077;strokeColor=#82b366;" parent="1" vertex="1">
          <mxGeometry x="540" y="330" width="100" height="30" as="geometry" />
        </mxCell>
        <mxCell id="ezkh08ThaCVcUG3YZsz_-2" value="ProductController" style="rounded=1;whiteSpace=wrap;html=1;fillColor=#d5e8d4;gradientColor=#97d077;strokeColor=#82b366;" parent="1" vertex="1">
          <mxGeometry x="540" y="370" width="100" height="30" as="geometry" />
        </mxCell>
        <mxCell id="ezkh08ThaCVcUG3YZsz_-3" value="OrderService" style="rounded=1;whiteSpace=wrap;html=1;fillColor=#d5e8d4;gradientColor=#97d077;strokeColor=#82b366;" parent="1" vertex="1">
          <mxGeometry x="750" y="330" width="100" height="30" as="geometry" />
        </mxCell>
        <mxCell id="ezkh08ThaCVcUG3YZsz_-4" value="ProductService" style="rounded=1;whiteSpace=wrap;html=1;fillColor=#d5e8d4;gradientColor=#97d077;strokeColor=#82b366;" parent="1" vertex="1">
          <mxGeometry x="750" y="370" width="100" height="30" as="geometry" />
        </mxCell>
        <mxCell id="ezkh08ThaCVcUG3YZsz_-5" value="React Component" style="rounded=1;whiteSpace=wrap;html=1;fillColor=#dae8fc;gradientColor=#7ea6e0;strokeColor=#6c8ebf;fontStyle=1" parent="1" vertex="1">
          <mxGeometry x="520" y="60" width="120" height="50" as="geometry" />
        </mxCell>
        <mxCell id="ezkh08ThaCVcUG3YZsz_-6" value="React routing" style="rounded=1;whiteSpace=wrap;html=1;fillColor=#dae8fc;gradientColor=#7ea6e0;strokeColor=#6c8ebf;fontStyle=1" parent="1" vertex="1">
          <mxGeometry x="520" y="125" width="120" height="50" as="geometry" />
        </mxCell>
        <mxCell id="ezkh08ThaCVcUG3YZsz_-7" value="React State" style="rounded=1;whiteSpace=wrap;html=1;fillColor=#dae8fc;gradientColor=#7ea6e0;strokeColor=#6c8ebf;fontStyle=1" parent="1" vertex="1">
          <mxGeometry x="680" y="60" width="120" height="50" as="geometry" />
        </mxCell>
        <mxCell id="ezkh08ThaCVcUG3YZsz_-8" value="React Form &amp;amp; Validation" style="rounded=1;whiteSpace=wrap;html=1;fillColor=#dae8fc;gradientColor=#7ea6e0;strokeColor=#6c8ebf;fontStyle=1" parent="1" vertex="1">
          <mxGeometry x="680" y="125" width="120" height="50" as="geometry" />
        </mxCell>
        <mxCell id="ezkh08ThaCVcUG3YZsz_-9" value="Redux store" style="rounded=1;whiteSpace=wrap;html=1;fillColor=#dae8fc;gradientColor=#7ea6e0;strokeColor=#6c8ebf;fontStyle=1" parent="1" vertex="1">
          <mxGeometry x="840" y="60" width="120" height="50" as="geometry" />
        </mxCell>
        <mxCell id="ezkh08ThaCVcUG3YZsz_-10" value="Seleniium" style="rounded=1;whiteSpace=wrap;html=1;fillColor=#dae8fc;gradientColor=#7ea6e0;strokeColor=#6c8ebf;fontStyle=1" parent="1" vertex="1">
          <mxGeometry x="970" y="125" width="120" height="50" as="geometry" />
        </mxCell>
        <mxCell id="ezkh08ThaCVcUG3YZsz_-11" value="JUnit / RestAssured" style="rounded=1;whiteSpace=wrap;html=1;fillColor=#d5e8d4;gradientColor=#97d077;strokeColor=#82b366;" parent="1" vertex="1">
          <mxGeometry x="680" y="560" width="260" height="30" as="geometry" />
        </mxCell>
        <mxCell id="ezkh08ThaCVcUG3YZsz_-13" value="http://localhost:8080/api/" style="text;html=1;strokeColor=none;fillColor=none;align=center;verticalAlign=middle;whiteSpace=wrap;rounded=0;" parent="1" vertex="1">
          <mxGeometry x="160" y="230" width="170" height="30" as="geometry" />
        </mxCell>
        <mxCell id="ezkh08ThaCVcUG3YZsz_-14" value="axios" style="rounded=1;whiteSpace=wrap;html=1;fillColor=#dae8fc;gradientColor=#7ea6e0;strokeColor=#6c8ebf;fontStyle=1" parent="1" vertex="1">
          <mxGeometry x="830" y="125" width="120" height="50" as="geometry" />
        </mxCell>
        <mxCell id="hsaCB-4a80Hoo1KQaO1r-1" value="Architecture" style="text;html=1;align=center;verticalAlign=middle;resizable=0;points=[];autosize=1;strokeColor=none;fillColor=none;fontSize=23;fontStyle=1" vertex="1" parent="1">
          <mxGeometry x="475" y="-46" width="153" height="40" as="geometry" />
        </mxCell>
      </root>
    </mxGraphModel>
  </diagram>
  <diagram id="8Tn2x0pqhneqTIKXfc8A" name="Features">
    <mxGraphModel dx="1797" dy="1036" grid="0" gridSize="10" guides="1" tooltips="1" connect="1" arrows="1" fold="1" page="0" pageScale="1" pageWidth="850" pageHeight="1100" math="0" shadow="0">
      <root>
        <mxCell id="0" />
        <mxCell id="1" parent="0" />
        <mxCell id="cjUp8wGb7h6m1sWV_c9I-1" value="Product Management" style="rounded=0;whiteSpace=wrap;html=1;labelPosition=center;verticalLabelPosition=top;align=center;verticalAlign=bottom;fontStyle=1;fontSize=14;" parent="1" vertex="1">
          <mxGeometry x="-225" y="-128" width="618" height="162" as="geometry" />
        </mxCell>
        <mxCell id="cjUp8wGb7h6m1sWV_c9I-2" value="Order Management" style="rounded=0;whiteSpace=wrap;html=1;labelPosition=center;verticalLabelPosition=top;align=center;verticalAlign=bottom;fontStyle=1;fontSize=14;" parent="1" vertex="1">
          <mxGeometry x="-222" y="110" width="618" height="162" as="geometry" />
        </mxCell>
        <mxCell id="cjUp8wGb7h6m1sWV_c9I-3" value="Shopping Cart" style="rounded=0;whiteSpace=wrap;html=1;labelPosition=center;verticalLabelPosition=top;align=center;verticalAlign=bottom;fontStyle=1;fontSize=14;" parent="1" vertex="1">
          <mxGeometry x="421" y="-131" width="544" height="403" as="geometry" />
        </mxCell>
        <mxCell id="cjUp8wGb7h6m1sWV_c9I-4" value="Add Product" style="rounded=1;whiteSpace=wrap;html=1;fillColor=#f5f5f5;gradientColor=#b3b3b3;strokeColor=#666666;" parent="1" vertex="1">
          <mxGeometry x="-200" y="-101" width="99" height="112" as="geometry" />
        </mxCell>
        <mxCell id="cjUp8wGb7h6m1sWV_c9I-5" value="Update Product" style="rounded=1;whiteSpace=wrap;html=1;fillColor=#f5f5f5;gradientColor=#b3b3b3;strokeColor=#666666;" parent="1" vertex="1">
          <mxGeometry x="-80" y="-101" width="99" height="112" as="geometry" />
        </mxCell>
        <mxCell id="cjUp8wGb7h6m1sWV_c9I-6" value="Remove Product" style="rounded=1;whiteSpace=wrap;html=1;fillColor=#f5f5f5;gradientColor=#b3b3b3;strokeColor=#666666;" parent="1" vertex="1">
          <mxGeometry x="41" y="-101" width="99" height="112" as="geometry" />
        </mxCell>
        <mxCell id="cjUp8wGb7h6m1sWV_c9I-7" value="Search Product" style="rounded=1;whiteSpace=wrap;html=1;fillColor=#f5f5f5;gradientColor=#b3b3b3;strokeColor=#666666;" parent="1" vertex="1">
          <mxGeometry x="164" y="-99" width="99" height="112" as="geometry" />
        </mxCell>
        <mxCell id="cjUp8wGb7h6m1sWV_c9I-8" value="View Product" style="rounded=1;whiteSpace=wrap;html=1;fillColor=#f5f5f5;gradientColor=#b3b3b3;strokeColor=#666666;" parent="1" vertex="1">
          <mxGeometry x="284" y="-99" width="99" height="112" as="geometry" />
        </mxCell>
        <mxCell id="cjUp8wGb7h6m1sWV_c9I-9" value="Add Order" style="rounded=1;whiteSpace=wrap;html=1;fillColor=#f5f5f5;gradientColor=#b3b3b3;strokeColor=#666666;" parent="1" vertex="1">
          <mxGeometry x="265" y="135" width="99" height="112" as="geometry" />
        </mxCell>
        <mxCell id="ghGvnJG8wl2qSkW1nHCc-1" value="Search Product&lt;br&gt;By Status" style="rounded=1;whiteSpace=wrap;html=1;fillColor=#f5f5f5;gradientColor=#b3b3b3;strokeColor=#666666;" vertex="1" parent="1">
          <mxGeometry x="-29" y="133" width="99" height="112" as="geometry" />
        </mxCell>
        <mxCell id="ghGvnJG8wl2qSkW1nHCc-2" value="View Order&lt;br&gt;Detail" style="rounded=1;whiteSpace=wrap;html=1;fillColor=#f5f5f5;gradientColor=#b3b3b3;strokeColor=#666666;" vertex="1" parent="1">
          <mxGeometry x="-181" y="133" width="99" height="112" as="geometry" />
        </mxCell>
        <mxCell id="ghGvnJG8wl2qSkW1nHCc-3" value="Update Status&lt;br&gt;of Order" style="rounded=1;whiteSpace=wrap;html=1;fillColor=#f5f5f5;gradientColor=#b3b3b3;strokeColor=#666666;" vertex="1" parent="1">
          <mxGeometry x="123" y="135" width="99" height="112" as="geometry" />
        </mxCell>
        <mxCell id="ghGvnJG8wl2qSkW1nHCc-4" value="Browse Products&lt;br&gt;Information" style="rounded=1;whiteSpace=wrap;html=1;fillColor=#f5f5f5;gradientColor=#b3b3b3;strokeColor=#666666;" vertex="1" parent="1">
          <mxGeometry x="464" y="-78" width="99" height="112" as="geometry" />
        </mxCell>
        <mxCell id="ghGvnJG8wl2qSkW1nHCc-5" value="Make a Review" style="rounded=1;whiteSpace=wrap;html=1;fillColor=#f5f5f5;gradientColor=#b3b3b3;strokeColor=#666666;" vertex="1" parent="1">
          <mxGeometry x="713" y="-78" width="99" height="112" as="geometry" />
        </mxCell>
        <mxCell id="ghGvnJG8wl2qSkW1nHCc-6" value="Add or Remove&lt;br&gt;Items to Cart" style="rounded=1;whiteSpace=wrap;html=1;fillColor=#f5f5f5;gradientColor=#b3b3b3;strokeColor=#666666;" vertex="1" parent="1">
          <mxGeometry x="445" y="100" width="99" height="112" as="geometry" />
        </mxCell>
        <mxCell id="ghGvnJG8wl2qSkW1nHCc-7" value="Input Personal Information" style="rounded=1;whiteSpace=wrap;html=1;fillColor=#f5f5f5;gradientColor=#b3b3b3;strokeColor=#666666;" vertex="1" parent="1">
          <mxGeometry x="578" y="100" width="99" height="112" as="geometry" />
        </mxCell>
        <mxCell id="ghGvnJG8wl2qSkW1nHCc-8" value="Input Payment Information" style="rounded=1;whiteSpace=wrap;html=1;fillColor=#f5f5f5;gradientColor=#b3b3b3;strokeColor=#666666;" vertex="1" parent="1">
          <mxGeometry x="708" y="100" width="99" height="112" as="geometry" />
        </mxCell>
        <mxCell id="ghGvnJG8wl2qSkW1nHCc-9" value="Make Order" style="rounded=1;whiteSpace=wrap;html=1;fillColor=#f5f5f5;gradientColor=#b3b3b3;strokeColor=#666666;" vertex="1" parent="1">
          <mxGeometry x="838" y="100" width="99" height="112" as="geometry" />
        </mxCell>
      </root>
    </mxGraphModel>
  </diagram>
</mxfile>
